<?xml version="1.0" encoding="UTF-8"?>
<svg id="_图层_3" data-name="图层 3" xmlns="http://www.w3.org/2000/svg" viewBox="0 0 2000 2000">
  <defs>
    <style>
      .cls-1 {
        stroke-width: 18px;
      }

      .cls-1, .cls-2, .cls-3 {
        stroke: #000;
        stroke-miterlimit: 10;
      }

      .cls-1, .cls-3 {
        fill: #fff;
      }

      .cls-2 {
        fill: none;
        stroke-width: 16px;
      }

      .cls-3 {
        stroke-width: 40px;
      }
    </style>
  </defs>
  <path class="cls-3" d="M893.69,920.44s77.04-1.19,128-132.74c50.96-131.56,135.26-113.19,166.07-93.63,30.81,19.56,29.63,58.67,29.63,58.67,0,0,2.37,21.83-10.67,47.66s-58.67,28.79-21.33,131.9c37.33,103.11,42.22,324.89-186.89,404-229.11,79.11-369.56,0-369.56,0,0,0,89.48-413.04,264.74-415.85Z"/>
  <path class="cls-3" d="M1503.47,930.36c5.33,34.67-62.67,95.53-62.67,95.53-32,72.87-65.33,67.13-65.33,67.13,8,34.67-54.67,40-54.67,40,0,0-14.67,40-41.33,38.67-26.67-1.33-38.67,38.67-38.67,38.67-72,49.33-93.53,22.85-93.53,22.85,0,0,86.67-108.52,47.44-269.68,0,0,684.76,46.84,759.43-486.5,0,0,59.26-219.18-113.19,61.71,0,0,72.59-247.86-98.81-3.04,0,0,58.67-184-108,94.67,0,0,48.33-136-79.17,56,0,0,56.21-119.41-115.35,74.37,0,0-194.67,181.33-187.56,198.22"/>
  <path class="cls-1" d="M1249.85,831.71s-62.06-37.59-91.34-23.16c0,0-3.23-34.48,59.57-46.3,0,0,42.7,2.6,31.77,69.46Z"/>
  <path class="cls-2" d="M1249.85,831.71s-12.97-38.35-59.06-61.47"/>
  <path class="cls-3" d="M923.26,948.18s-134.11-111.29-133.06-203.59c0-.25,0-.49.01-.74,0,0,20.15-61.78-88.89-88.44l-246.22-156.15s-156.44-132.44-60.44,0c0,0-427.11-584.44-91.11,68l-188.44-171.64s-131.56-96.8-49.78,54.31l181.33,190.22s-88.89-104.89-158.22-151.11-49.9,39.11-49.9,39.11c0,0,32.12,63.32,46.34,75.21,14.22,11.9,151.11,127.45,151.11,127.45l-136.89-115.56s-216.44,45.78,157.78,189.78l-121.93-51.7s-77.56-18.67-17.11,56c0,0,69.78,51.11,133.78,64.44l46.67,6.22-70.22-7.56s-144.44,14.67-20.44,62.67c0,0,72.89,27.56,116.89,28l-44-.44s-94.67,78.22,4,72.89l100,.89-49.78,2.67s-65.78,85.33,6.67,77.78l114.22-20-73.33,16.44s15.56,56,121.63,45.33l-34.96,6.52s14.81,64.59,117.93,43.26l-11.85,4.32s-.59,56.72,119.7,27.68"/>
  <path class="cls-3" d="M699.83,1248.72s-162.67,97.33-221.33,90.67c-58.67-6.67-200,53.33-138.67,133.33l316.15-142.07-314.07,145.78s-72.3,24.89-47.41,78.22c24.89,53.33,120.89,16,120.89,16l79.17-37.33s-106.13,62.81-77.1,101.93c29.04,39.11,55.11,53.33,86.52,46.81s88.89-50.96,112-68.15c23.11-17.19,49.78-48.59,49.78-48.59l-109.63,100.15s-18.96,50.37,16,55.7c34.96,5.33,84.15,11.85,107.85-10.67,23.7-22.52,106.67-114.96,104.3-133.93l16.44-228.44"/>
  <ellipse cx="1118.89" cy="753.63" rx="25.4" ry="15.82" transform="translate(101.35 1639.34) rotate(-75)"/>
</svg>